<?xml version="1.0" standalone="no"?>
<svg version="1.0" xmlns="http://www.w3.org/2000/svg" width="30pt" height="50pt" viewBox="0 0 1667 1667" preserveAspectRatio="xMidYMid meet">
  <g transform="translate(0,1667) scale(0.1,-0.1)" fill="#059669" stroke="none">
    <path d="M0 15240 l0 -1430 8330 0 8330 0 0 1430 0 1430 -8330 0 -8330 0 0 -1430z"/>
    <path d="M0 10640 l0 -1430 8330 0 8330 0 0 1430 0 1430 -8330 0 -8330 0 0 -1430z"/>
    <path d="M0 6040 l0 -1430 8330 0 8330 0 0 1430 0 1430 -8330 0 -8330 0 0 -1430z"/>
    <path d="M0 1440 l0 -1430 8330 0 8330 0 0 1430 0 1430 -8330 0 -8330 0 0 -1430z"/>
  </g>
</svg>
